<svg xmlns="http://www.w3.org/2000/svg" viewBox="0 0 24 24" role="img" aria-label="Discord">
  <path fill="#000" d="M19.66 5.24A17.4 17.4 0 0 0 15.4 4.2l-.2.36c1.58.39 2.32.95 2.32.95A13.6 13.6 0 0 0 12 4.55a13.6 13.6 0 0 0-5.52.96s.7-.53 2.2-.92l-.14-.25A17.2 17.2 0 0 0 4.34 5.24C1.74 9.15.98 12.94 1.18 16.68A17.7 17.7 0 0 0 6.6 19.4l.4-.55c-.72-.28-1.37-.62-1.95-1.02l.45-.35c3.4 1.6 7.1 1.6 10.5 0l.45.35c-.58.4-1.23.74-1.95 1.02l.4.55a17.7 17.7 0 0 0 5.42-2.72c.24-4.34-.66-8.08-2.66-11.44ZM8.7 14.55c-.86 0-1.56-.8-1.56-1.78s.68-1.78 1.56-1.78 1.58.8 1.56 1.78c0 .98-.7 1.78-1.56 1.78Zm6.6 0c-.86 0-1.56-.8-1.56-1.78s.68-1.78 1.56-1.78 1.58.8 1.56 1.78c0 .98-.68 1.78-1.56 1.78Z"/>
</svg>
